<svg width="25" height="25" viewBox="0 0 25 25" fill="none" xmlns="http://www.w3.org/2000/svg">
<path d="M12.8682 4.66016C12.2881 4.66016 11.7939 4.16602 11.7939 3.58594V1.35156C11.7939 0.760742 12.2881 0.277344 12.8682 0.277344C13.4482 0.277344 13.9424 0.760742 13.9424 1.35156V3.58594C13.9424 4.16602 13.4482 4.66016 12.8682 4.66016ZM18.2178 6.90527C17.8096 6.48633 17.8096 5.79883 18.2178 5.39062L19.8076 3.79004C20.2266 3.38184 20.9141 3.38184 21.3223 3.79004C21.7305 4.19824 21.7305 4.89648 21.333 5.30469L19.7432 6.89453C19.3242 7.31348 18.6367 7.30273 18.2178 6.90527ZM7.49707 6.90527C7.08887 7.30273 6.40137 7.30273 5.99316 6.89453L4.40332 5.29395C4.00586 4.89648 4.0166 4.19824 4.4248 3.79004C4.83301 3.38184 5.53125 3.39258 5.92871 3.79004L7.51855 5.39062C7.91602 5.78809 7.91602 6.49707 7.49707 6.90527ZM12.8574 17.8945C9.77441 17.8945 7.21777 15.3379 7.21777 12.2441C7.21777 9.15039 9.77441 6.59375 12.8574 6.59375C15.9512 6.59375 18.4971 9.15039 18.4971 12.2441C18.4971 15.3379 15.9512 17.8945 12.8574 17.8945ZM20.4414 12.2441C20.4414 11.6533 20.9248 11.1699 21.5156 11.1699H23.7393C24.3301 11.1699 24.8135 11.6533 24.8135 12.2441C24.8135 12.8242 24.3301 13.3076 23.7393 13.3076H21.5156C20.9248 13.3076 20.4414 12.8242 20.4414 12.2441ZM5.29492 12.2441C5.29492 12.8242 4.81152 13.3076 4.2207 13.3076H1.99707C1.40625 13.3076 0.922852 12.8242 0.922852 12.2441C0.922852 11.6533 1.40625 11.1699 1.99707 11.1699H4.2207C4.81152 11.1699 5.29492 11.6533 5.29492 12.2441ZM7.51855 17.6045C7.91602 18.0127 7.91602 18.7002 7.49707 19.1084L5.91797 20.6982C5.49902 21.1064 4.81152 21.0957 4.39258 20.6768C3.99512 20.2686 3.99512 19.5811 4.40332 19.1729L5.99316 17.5938C6.41211 17.1855 7.09961 17.1963 7.51855 17.6045ZM18.2178 17.6045C18.626 17.1963 19.3135 17.1855 19.7324 17.5938L21.3223 19.1836C21.7305 19.5918 21.7412 20.2793 21.333 20.6875C20.9141 21.0957 20.2266 21.1064 19.8184 20.709L18.2178 19.1084C17.8096 18.7002 17.8096 18.0127 18.2178 17.6045ZM12.8682 19.8281C13.4482 19.8281 13.9424 20.3115 13.9424 20.9023V23.1367C13.9424 23.7168 13.4482 24.2109 12.8682 24.2109C12.2881 24.2109 11.7939 23.7168 11.7939 23.1367V20.9023C11.7939 20.3115 12.2881 19.8281 12.8682 19.8281Z" fill="#F8D74A"/>
</svg>
