<svg width="32" height="23" viewBox="0 0 32 23" fill="none" xmlns="http://www.w3.org/2000/svg">
<path d="M20.4844 4.91797C19.9473 4.91797 19.5068 4.4668 19.5068 3.94043V1.7168C19.5068 1.17969 19.9473 0.739258 20.4844 0.739258C21.0107 0.739258 21.4512 1.17969 21.4512 1.7168V3.94043C21.4512 4.4668 21.0107 4.91797 20.4844 4.91797ZM14.1035 6.99121L12.5352 5.41211C12.1592 5.03613 12.1592 4.41309 12.5352 4.04785C12.9004 3.67188 13.5234 3.66113 13.8994 4.04785L15.4785 5.6377C15.8545 6.01367 15.8438 6.62598 15.4893 6.99121C15.124 7.36719 14.4902 7.37793 14.1035 6.99121ZM25.4795 7.00195C25.1143 6.62598 25.1035 6.00293 25.4795 5.6377L27.0693 4.04785C27.4453 3.67188 28.0576 3.67188 28.4336 4.04785C28.8096 4.42383 28.8096 5.03613 28.4336 5.41211L26.8652 6.99121C26.4785 7.37793 25.8447 7.36719 25.4795 7.00195ZM23.3418 16.584C22.9873 13.3291 20.6025 11.0947 17.1113 10.8262C16.7783 10.1924 16.3916 9.67676 15.9189 9.2041C16.8105 7.66797 18.5186 6.61523 20.4844 6.61523C23.46 6.61523 25.8555 9.01074 25.8555 11.9863C25.8555 13.8877 24.8887 15.5312 23.3418 16.584ZM4.61816 22.8037C1.90039 22.8037 0.0849609 21.0742 0.0849609 18.6357C0.0849609 16.6592 1.30957 15.1016 3.13574 14.5645C3.46875 10.9873 6.47656 8.22656 10.0537 8.22656C12.8789 8.22656 15.0703 9.7627 16.2734 12.0508C19.5498 12.0723 21.9883 14.3604 21.9883 17.4111C21.9883 20.4512 19.6143 22.8037 16.5312 22.8037H4.61816ZM28.5195 12.9639C27.9932 12.9639 27.542 12.5234 27.542 11.9971C27.542 11.46 27.9932 11.0195 28.5195 11.0195H30.7432C31.2803 11.0195 31.71 11.46 31.71 11.9971C31.71 12.5234 31.2803 12.9639 30.7432 12.9639H28.5195ZM27.0693 19.9463L25.4795 18.3672C25.1143 18.002 25.1035 17.3789 25.4795 17.0029C25.8555 16.627 26.4678 16.6377 26.8438 17.0029L28.4229 18.582C28.7988 18.958 28.8096 19.5703 28.4336 19.9463C28.0576 20.3223 27.4453 20.333 27.0693 19.9463Z" fill="white"/>
</svg>
